<svg width="705" height="367" viewBox="0 0 705 367" fill="none" xmlns="http://www.w3.org/2000/svg">
<path fill-rule="evenodd" clip-rule="evenodd" d="M352.682 366.999L351.591 366.453L359.041 362.086L353.59 360.631L354.68 360.085L219.677 282.027L220.767 281.299L355.771 359.357L356.861 358.811L359.223 361.904L401.196 337.523L402.286 338.068L352.682 366.999ZM216.406 279.48L218.768 282.573L221.857 280.753L216.406 279.48L258.561 255.098L257.47 254.552L207.866 283.301L208.956 283.846L216.406 279.48Z" fill="#DDDDDD"/>
<path fill-rule="evenodd" clip-rule="evenodd" d="M428.633 353.716L429.723 353.17L422.273 348.804L427.724 347.348L426.634 346.802L484.96 312.959L483.87 312.231L425.544 346.074L424.454 345.528L422.092 348.622L403.195 337.704L402.104 338.25L428.633 353.716ZM488.412 310.411L486.05 313.505L482.961 311.685L488.412 310.411L469.334 299.494L470.424 298.948L496.952 314.232L495.862 314.778L488.412 310.411Z" fill="#DDDDDD"/>
<path fill-rule="evenodd" clip-rule="evenodd" d="M519.12 328.243L520.21 327.697L512.76 323.33L518.211 321.875L517.121 321.329L559.821 296.583L558.731 295.855L516.031 320.601L514.941 320.055L512.578 323.148L493.682 312.231L492.591 312.777L519.12 328.243ZM563.273 294.218L560.911 297.311L557.822 295.491L563.273 294.218L544.194 283.301L545.285 282.755L571.813 298.039L570.723 298.585L563.273 294.218Z" fill="#DDDDDD"/>
<path fill-rule="evenodd" clip-rule="evenodd" d="M570.723 298.403L571.813 297.857L564.363 293.49L569.814 292.034L568.724 291.488L652.67 242.907L651.58 242.179L567.634 290.943L566.544 290.397L564.182 293.49L545.285 282.573L544.194 283.119L570.723 298.403ZM655.941 240.542L653.578 243.635L650.49 241.815L655.941 240.542L636.862 229.624L637.952 229.078L664.481 244.363L663.39 244.908L655.941 240.542Z" fill="#DDDDDD"/>
<path fill-rule="evenodd" clip-rule="evenodd" d="M633.955 227.987L635.045 227.441L630.684 224.894L636.135 223.438L635.045 222.892L643.948 217.797L642.858 217.07L633.955 222.164L632.865 221.618L630.502 224.712L611.606 213.794L610.515 214.34L633.955 227.987ZM647.219 215.25L644.857 218.343L641.768 216.524L647.219 215.25L634.318 207.79L635.408 207.244L655.759 219.071L654.669 219.617L647.219 215.25Z" fill="#DDDDDD"/>
<path fill-rule="evenodd" clip-rule="evenodd" d="M651.58 217.797L652.67 217.251L648.309 214.704L653.76 213.249L652.67 212.703L693.008 189.413L691.918 188.867L651.58 212.157L650.49 211.611L648.128 214.704L629.231 203.787L628.14 204.333L651.58 217.797ZM696.46 186.865L694.098 189.959L691.009 188.139L696.46 186.865L677.381 175.948L678.472 175.402L705 190.686L703.91 191.232L696.46 186.865Z" fill="#DDDDDD"/>
<path fill-rule="evenodd" clip-rule="evenodd" d="M574.539 99.1636L575.629 99.7094L571.268 102.257L576.719 103.712L575.629 104.258L683.559 166.668L682.469 167.214L574.539 104.804L573.448 105.35L571.086 102.257L561.638 107.715L560.548 107.17L574.539 99.1636ZM687.011 169.034L684.649 165.94L681.56 167.76L687.011 169.034L677.563 174.492L678.653 175.038L695.733 165.213L694.643 164.667L687.011 169.034Z" fill="#DDDDDD"/>
<path fill-rule="evenodd" clip-rule="evenodd" d="M290.176 267.47L291.267 266.925L283.817 262.558L289.268 261.102L288.178 260.556L353.408 222.892L352.318 222.164L287.088 259.828L285.997 259.283L283.635 262.376L264.738 251.459L263.648 252.004L290.176 267.47ZM356.861 220.345L354.499 223.438L351.41 221.618L356.861 220.345L337.782 209.427L338.872 208.881L365.401 224.166L364.31 224.711L356.861 220.345Z" fill="#DDDDDD"/>
<path fill-rule="evenodd" clip-rule="evenodd" d="M439.717 310.593L438.626 310.048L446.076 305.681L440.625 304.225L441.715 303.679L335.965 242.543L337.055 241.815L442.805 302.951L443.896 302.406L446.258 305.499L465.155 294.582L466.245 295.127L439.717 310.593ZM332.513 239.996L334.875 243.089L337.964 241.269L332.513 239.996L351.592 229.078L350.501 228.533L323.973 243.817L325.063 244.362L332.513 239.996Z" fill="#DDDDDD"/>
<path fill-rule="evenodd" clip-rule="evenodd" d="M208.774 283.846L207.684 283.301L215.134 278.934L209.683 277.478L210.773 276.932L51.6031 185.046L52.6933 184.318L211.863 276.204L212.954 275.659L215.316 278.752L257.289 254.37L258.379 254.916L208.774 283.846ZM48.5142 182.498L50.8763 185.592L53.9652 183.772L48.5142 182.498L63.5953 173.765L62.5051 173.219L39.9742 186.32L41.0644 186.865L48.5142 182.498Z" fill="#DDDDDD"/>
<path fill-rule="evenodd" clip-rule="evenodd" d="M50.5129 181.225L49.4227 180.679L56.8724 176.312L51.4214 174.856L52.5116 174.311L11.8106 150.839L12.9008 150.111L53.6018 173.583L54.692 173.037L57.0541 176.13L99.027 151.748L100.117 152.294L50.5129 181.225ZM8.53996 148.291L10.9021 151.384L13.991 149.565L8.53996 148.291L23.6211 139.557L22.5309 139.012L0 152.112L1.09021 152.658L8.53996 148.291Z" fill="#DDDDDD"/>
<path fill-rule="evenodd" clip-rule="evenodd" d="M115.925 68.0498L114.835 68.5957L122.467 72.9625L117.015 74.4182L118.106 74.964L19.9872 131.733L21.0774 132.461L119.196 75.6918L120.286 76.2377L122.648 73.1445L156.808 92.7955L157.898 92.2496L115.925 68.0498ZM16.5348 134.281L18.8969 131.188L21.9859 133.007L16.5348 134.281L23.6212 138.466L22.5309 139.012L7.99489 130.642L9.08509 130.096L16.5348 134.281Z" fill="#DDDDDD"/>
<path fill-rule="evenodd" clip-rule="evenodd" d="M212.045 -0.000976562L210.955 0.544882L218.405 4.91176L212.954 6.36739L214.044 6.91325L115.925 63.6827L117.016 64.4105L215.134 7.4591L216.224 8.00496L218.586 4.91176L252.746 24.5627L253.836 24.0168L212.045 -0.000976562ZM112.473 66.23L114.835 63.1368L117.924 64.9563L112.473 66.23L119.559 70.4149L118.469 70.9608L103.933 62.5909L105.023 62.0451L112.473 66.23Z" fill="#DDDDDD"/>
<path d="M466.245 230.716L459.885 234.355L537.835 279.479L531.294 283.3L537.653 286.939L637.952 228.896L617.783 217.251L635.408 207.062L542.196 153.204L524.571 163.393L499.314 148.837L552.916 117.905L380.3 18.1944L326.698 49.1265L278.366 21.1057L145.179 98.0719L168.8 111.718L62.5051 173.219L231.487 270.928L258.561 255.28L402.286 338.432L469.515 299.494L492.773 312.959L501.313 308.046L494.954 304.407L492.773 305.681L469.515 292.216L402.286 331.154L264.92 251.64L337.964 209.427L367.036 226.349L373.396 222.71L284.362 171.217L278.003 174.856L331.604 205.788L252.201 251.64L231.487 263.649L75.2243 173.401L175.342 115.539L228.943 146.471L235.303 142.832L158.262 98.2539L278.729 28.5658L413.733 106.624L420.093 102.985L333.24 52.7656L380.482 25.4726L540.379 117.905L493.137 145.198L468.97 131.187L462.611 134.826L490.593 151.02L403.195 201.603L418.457 210.337L424.817 206.698L415.914 201.603L496.952 154.659L524.571 170.671L542.196 160.482L622.689 207.062L605.064 217.251L625.233 228.896L544.195 275.84L466.245 230.716ZM421.183 324.24L457.887 303.133L459.158 303.861L422.455 324.968L421.183 324.24ZM418.821 322.966L455.524 301.86L456.796 302.587L420.093 323.694L418.821 322.966ZM384.298 324.968L383.026 325.695L282.908 267.834L284.18 267.107L384.298 324.968ZM386.66 323.512L385.388 324.24L285.271 266.379L286.543 265.651L386.66 323.512Z" fill="#DDDDDD"/>
<path d="M545.466 98.254L678.471 175.22L632.138 201.967L630.866 201.24L655.395 187.047L654.124 186.319L629.594 200.512L628.685 199.966L653.215 185.773L651.943 185.046L627.413 199.238L626.142 198.51L665.934 175.402L539.107 102.075L545.466 98.254ZM655.214 164.849L656.486 164.121L556.368 106.26L555.096 106.988L655.214 164.849ZM652.852 166.305L654.124 165.577L554.006 107.534L552.734 108.261L652.852 166.305Z" fill="#DDDDDD"/>
<path d="M155.536 62.0454L22.5309 139.012L68.8647 165.759L70.1366 165.031L45.607 150.839L46.8789 150.111L71.4085 164.303L72.317 163.757L47.9691 149.383L49.241 148.655L73.7707 162.847L75.0426 162.12L35.25 139.012L161.896 65.6844L155.536 62.0454ZM45.7887 128.64L44.5168 127.912L144.634 70.0513L145.906 70.7791L45.7887 128.64ZM48.1508 130.096L46.8789 129.368L146.996 71.5069L148.268 72.2347L48.1508 130.096Z" fill="#DDDDDD"/>
<path d="M531.476 283.3L532.202 282.755L495.499 261.648L494.772 262.012L531.476 283.3Z" fill="#DDDDDD"/>
<path d="M446.439 286.212L447.166 286.576L410.644 307.864L409.736 307.318L446.439 286.212Z" fill="#DDDDDD"/>
<path fill-rule="evenodd" clip-rule="evenodd" d="M526.57 286.03C526.751 286.03 526.933 286.212 527.115 286.394C526.206 286.939 525.298 287.485 524.389 288.031C524.208 288.031 524.026 287.849 523.844 287.667C524.753 287.121 525.661 286.576 526.57 286.03ZM531.476 283.3L532.021 283.664L529.295 285.302L528.75 284.938L531.476 283.3ZM521.664 288.759C521.845 288.759 522.027 288.941 522.209 289.123C521.3 289.669 520.392 290.215 519.483 290.76C519.302 290.76 519.12 290.579 518.938 290.397C519.847 289.851 520.755 289.305 521.664 288.759ZM516.939 291.67C517.121 291.67 517.303 291.852 517.485 292.034C516.576 292.58 515.668 293.126 514.759 293.672C514.577 293.672 514.396 293.49 514.214 293.49C515.122 292.762 516.031 292.216 516.939 291.67ZM512.034 294.4C512.215 294.4 512.397 294.581 512.579 294.763C511.67 295.309 510.762 295.855 509.853 296.401C509.671 296.401 509.49 296.219 509.308 296.219C510.216 295.491 511.125 294.945 512.034 294.4ZM507.128 297.311C507.309 297.311 507.491 297.493 507.673 297.493C506.764 298.039 505.856 298.584 504.947 299.13C504.765 299.13 504.584 298.948 504.402 298.948C505.311 298.221 506.219 297.675 507.128 297.311ZM502.403 300.04C502.585 300.04 502.767 300.222 502.948 300.222C502.04 300.768 501.131 301.314 500.223 301.86C500.041 301.86 499.86 301.678 499.678 301.678C500.586 301.132 501.495 300.586 502.403 300.04ZM497.497 302.769L498.043 302.951L495.317 304.589L494.772 304.225L497.497 302.769Z" fill="#DDDDDD"/>
<path fill-rule="evenodd" clip-rule="evenodd" d="M532.384 289.487C532.566 289.487 532.747 289.669 532.929 289.669C532.021 290.215 531.112 290.761 530.203 291.306C530.022 291.306 529.84 291.124 529.658 290.943C530.567 290.397 531.475 290.033 532.384 289.487ZM537.29 286.576L537.835 286.758L535.109 288.395L534.564 288.031L537.29 286.576ZM527.66 292.216C527.841 292.216 528.023 292.398 528.205 292.398C527.296 292.944 526.388 293.49 525.479 294.036C525.298 293.854 525.116 293.854 524.934 293.672C525.843 293.308 526.751 292.762 527.66 292.216ZM522.754 295.127C522.935 295.127 523.117 295.309 523.299 295.491C522.39 296.037 521.482 296.583 520.573 297.129C520.392 297.129 520.21 296.947 520.028 296.765C520.937 296.037 521.845 295.491 522.754 295.127ZM517.848 297.857C518.03 297.857 518.211 298.039 518.393 298.221C517.484 298.767 516.576 299.312 515.667 299.858C515.486 299.858 515.304 299.676 515.122 299.494C516.031 298.948 516.939 298.403 517.848 297.857ZM513.124 300.586C513.305 300.586 513.487 300.768 513.669 300.95C512.76 301.496 511.852 302.042 510.943 302.588C510.762 302.588 510.58 302.406 510.398 302.224C511.307 301.678 512.215 301.132 513.124 300.586ZM508.218 303.497C508.399 303.497 508.581 303.679 508.763 303.861C507.854 304.407 506.946 304.953 506.037 305.499C505.856 305.499 505.674 305.317 505.492 305.317C506.401 304.407 507.309 304.043 508.218 303.497ZM503.312 306.227L503.857 306.409L501.131 308.046L500.586 307.864L503.312 306.227Z" fill="#DDDDDD"/>
<path fill-rule="evenodd" clip-rule="evenodd" d="M415.187 267.652C415.005 267.652 414.824 267.834 414.642 267.834C415.55 268.38 416.459 268.926 417.367 269.472C417.549 269.29 417.731 269.29 417.912 269.108C417.004 268.744 416.095 268.198 415.187 267.652ZM421.183 264.195C421.001 264.195 420.82 264.377 420.638 264.559C421.547 265.105 422.455 265.651 423.364 266.197C423.545 266.197 423.727 266.015 423.909 265.833C423 265.287 422.092 264.741 421.183 264.195ZM416.277 261.466L415.732 261.83L418.458 263.467L419.003 263.285L416.277 261.466ZM425.907 267.106C425.726 267.288 425.544 267.288 425.362 267.47C426.271 268.016 427.179 268.562 428.088 269.108C428.269 269.108 428.451 268.926 428.633 268.926C427.724 268.016 426.816 267.47 425.907 267.106ZM430.813 269.836C430.632 269.836 430.45 270.018 430.268 270.2C431.177 270.745 432.085 271.291 432.994 271.837C433.175 271.837 433.357 271.655 433.539 271.655C432.63 270.927 431.722 270.382 430.813 269.836ZM435.719 272.565C435.537 272.747 435.356 272.747 435.174 272.929C436.083 273.475 436.991 274.021 437.9 274.566C438.081 274.566 438.263 274.385 438.445 274.385C437.536 273.657 436.628 273.111 435.719 272.565ZM440.443 275.476C440.262 275.476 440.08 275.658 439.898 275.658C440.807 276.204 441.715 276.75 442.624 277.296C442.806 277.296 442.987 277.114 443.169 277.114C442.26 276.386 441.352 276.022 440.443 275.476ZM445.349 278.206C445.168 278.206 444.986 278.388 444.804 278.388C445.713 278.933 446.621 279.479 447.53 280.025C447.711 280.025 447.893 279.843 448.075 279.843C447.166 279.297 446.258 278.751 445.349 278.206ZM450.255 281.117L449.71 281.299L452.436 282.936L452.981 282.572L450.255 281.117ZM410.463 264.741L409.918 265.105L412.643 266.743L413.188 266.379L410.463 264.741ZM420.093 270.382C419.911 270.382 419.729 270.564 419.548 270.745C420.456 271.291 421.365 271.837 422.273 272.383C422.455 272.383 422.637 272.201 422.818 272.019C421.91 271.473 421.001 270.927 420.093 270.382ZM424.999 273.293C424.817 273.293 424.635 273.475 424.454 273.657C425.362 274.203 426.271 274.748 427.179 275.294C427.361 275.294 427.543 275.112 427.724 275.112C426.816 274.203 425.907 273.839 424.999 273.293ZM429.723 276.022C429.541 276.022 429.36 276.204 429.178 276.386C430.086 276.932 430.995 277.478 431.903 278.024C432.085 278.024 432.267 277.842 432.449 277.842C431.54 277.114 430.632 276.568 429.723 276.022ZM434.629 278.751C434.447 278.933 434.266 278.933 434.084 279.115C434.992 279.661 435.901 280.207 436.809 280.753C436.991 280.753 437.173 280.571 437.354 280.571C436.446 279.843 435.537 279.297 434.629 278.751ZM439.535 281.663C439.353 281.663 439.172 281.845 438.99 282.027C439.898 282.572 440.807 283.118 441.715 283.664C441.897 283.664 442.079 283.482 442.26 283.482C441.352 282.754 440.443 282.209 439.535 281.663ZM444.259 284.392L443.714 284.574L446.439 286.212L446.985 286.03L444.259 284.392Z" fill="#DDDDDD"/>
<path fill-rule="evenodd" clip-rule="evenodd" d="M494.954 262.012L495.862 262.558C475.693 274.203 475.693 293.308 495.862 304.953L494.954 305.499C474.24 293.49 474.24 273.839 494.954 262.012Z" fill="#DDDDDD"/>
<path fill-rule="evenodd" clip-rule="evenodd" d="M409.918 307.5L410.826 306.955C390.657 295.31 390.657 276.204 410.826 264.559L409.918 264.014C389.204 276.023 389.204 295.492 409.918 307.5Z" fill="#DDDDDD"/>
<path d="M354.68 225.803L416.64 261.648L410.281 265.287L348.321 229.442L354.68 225.803ZM452.799 282.573L476.057 296.037H463.338L446.621 286.394L452.799 282.573Z" fill="#DDDDDD"/>
<path d="M355.407 232.899L371.76 223.438L361.585 221.8L349.048 229.26L355.407 232.899Z" fill="#DDDDDD"/>
<path d="M275.641 321.147L274.55 320.419L267.646 322.056L266.555 322.784L268.554 324.058L266.919 324.968L268.009 325.696L269.644 324.786L270.371 325.15L271.461 324.422L270.735 324.058L275.641 321.147ZM269.463 323.33L268.554 322.784L272.007 321.875L269.463 323.33Z" fill="#DDDDDD"/>
<path d="M279.274 323.148C278.729 322.784 278.184 322.784 277.457 322.784C276.731 322.784 276.186 322.966 275.64 323.148L271.461 325.514C270.916 325.878 270.734 326.241 270.734 326.605C270.734 326.969 270.916 327.333 271.461 327.697C272.006 328.061 272.551 328.061 273.278 328.061C274.005 328.061 274.55 327.879 275.095 327.697L279.274 325.332C279.82 324.968 280.001 324.604 280.001 324.24C280.001 323.876 279.82 323.512 279.274 323.148ZM278.003 324.604L273.823 326.969C273.642 327.151 273.46 327.151 273.097 327.151C272.915 327.151 272.552 327.151 272.37 326.969C272.188 326.787 272.006 326.787 272.006 326.605C272.006 326.423 272.188 326.241 272.37 326.241L276.549 323.876C276.731 323.694 276.912 323.694 277.276 323.694C277.457 323.694 277.821 323.694 278.003 323.876C278.184 324.058 278.366 324.058 278.366 324.24C278.366 324.422 278.184 324.604 278.003 324.604Z" fill="#DDDDDD"/>
<path d="M283.999 325.878C283.453 325.514 282.908 325.514 282.182 325.514C281.455 325.514 280.91 325.696 280.365 325.878L276.185 328.243C275.64 328.607 275.459 328.971 275.459 329.335C275.459 329.699 275.64 330.063 276.185 330.426C276.731 330.79 277.276 330.79 278.002 330.79C278.729 330.79 279.274 330.608 279.819 330.426L283.999 328.061C284.544 327.697 284.725 327.333 284.725 326.969C284.725 326.605 284.544 326.241 283.999 325.878ZM282.727 327.333L278.548 329.699C278.366 329.881 278.184 329.881 277.821 329.881C277.639 329.881 277.276 329.881 277.094 329.699C276.912 329.517 276.731 329.517 276.731 329.335C276.731 329.153 276.912 328.971 277.094 328.971L281.273 326.605C281.455 326.423 281.636 326.423 282 326.423C282.182 326.423 282.545 326.423 282.727 326.605C282.908 326.787 283.09 326.787 283.09 326.969C283.09 327.151 282.908 327.333 282.727 327.333Z" fill="#DDDDDD"/>
<path d="M632.138 126.275L631.048 125.547L624.143 127.184L623.053 127.912L625.052 129.186L623.416 130.096L624.506 130.823L626.142 129.914L626.868 130.278L627.959 129.55L627.232 129.186L632.138 126.275ZM625.96 128.458L625.052 127.912L628.504 127.002L625.96 128.458Z" fill="#DDDDDD"/>
<path d="M635.772 128.276C635.227 127.912 634.682 127.912 633.955 127.912C633.228 127.912 632.683 128.094 632.138 128.276L627.959 130.642C627.414 131.005 627.232 131.369 627.232 131.733C627.232 132.097 627.414 132.461 627.959 132.825C628.504 133.189 629.049 133.189 629.776 133.189C630.503 133.189 631.048 133.007 631.593 132.825L635.772 130.46C636.317 130.096 636.499 129.732 636.499 129.368C636.499 129.004 636.317 128.64 635.772 128.276ZM634.5 129.732L630.321 132.097C630.139 132.279 629.958 132.279 629.594 132.279C629.412 132.279 629.049 132.279 628.867 132.097C628.686 131.915 628.504 131.915 628.504 131.733C628.504 131.551 628.686 131.369 628.867 131.369L633.046 129.004C633.228 128.822 633.41 128.822 633.773 128.822C633.955 128.822 634.318 128.822 634.5 129.004C634.682 129.186 634.863 129.186 634.863 129.368C634.863 129.55 634.682 129.732 634.5 129.732Z" fill="#DDDDDD"/>
<path d="M640.496 131.005C639.951 130.642 639.406 130.642 638.679 130.642C637.952 130.642 637.407 130.824 636.862 131.005L632.683 133.371C632.138 133.735 631.956 134.099 631.956 134.463C631.956 134.827 632.138 135.19 632.683 135.554C633.228 135.918 633.773 135.918 634.5 135.918C635.227 135.918 635.772 135.736 636.317 135.554L640.496 133.189C641.041 132.825 641.223 132.461 641.223 132.097C641.223 131.733 641.041 131.369 640.496 131.005ZM639.224 132.461L635.045 134.826C634.863 135.008 634.682 135.008 634.318 135.008C634.137 135.008 633.773 135.008 633.591 134.826C633.41 134.645 633.228 134.645 633.228 134.463C633.228 134.281 633.41 134.099 633.591 134.099L637.771 131.733C637.952 131.551 638.134 131.551 638.497 131.551C638.679 131.551 639.042 131.551 639.224 131.733C639.406 131.915 639.588 131.915 639.588 132.097C639.588 132.279 639.406 132.461 639.224 132.461Z" fill="#DDDDDD"/>
<path d="M355.589 268.016C356.134 268.38 356.679 268.38 357.224 268.016L357.769 267.834C358.496 267.288 358.496 266.925 357.769 266.379L358.86 265.833C359.223 266.015 359.768 266.197 360.313 266.197C360.677 266.197 361.222 266.015 361.585 265.833L361.767 265.651C362.312 265.287 362.312 265.105 361.949 264.741C361.767 264.559 361.403 264.559 361.04 264.559C360.858 264.559 360.495 264.741 360.313 264.741L360.132 264.923L359.041 264.195L359.223 264.013C359.768 263.649 360.313 263.467 361.04 263.467C361.767 263.467 362.312 263.649 363.039 263.831C363.584 264.195 363.766 264.559 363.766 264.923C363.766 265.287 363.402 265.651 363.039 265.833L362.675 266.015C362.13 266.379 361.585 266.379 361.04 266.561C360.677 266.561 360.495 266.561 360.313 266.561C360.495 266.925 360.495 267.107 360.313 267.47C360.132 267.652 359.95 267.834 359.768 268.016L359.223 268.38C358.678 268.744 357.951 268.926 357.224 268.926C356.498 268.926 355.952 268.744 355.407 268.38C354.862 268.016 354.68 267.652 354.68 267.288C354.68 266.925 354.862 266.561 355.407 266.197L355.589 266.015L356.861 266.561L356.679 266.743C356.497 266.925 356.497 266.925 356.497 267.107C355.226 267.652 355.226 267.834 355.589 268.016Z" fill="#DDDDDD"/>
<path d="M368.126 267.653L367.036 266.925L360.131 268.562L359.041 269.29L361.04 270.564L359.404 271.474L360.495 272.201L362.13 271.292L362.857 271.656L363.947 270.928L363.22 270.564L368.126 267.653ZM362.13 269.654L361.221 269.108L364.674 268.199L362.13 269.654Z" fill="#DDDDDD"/>
<path d="M371.76 269.654C371.215 269.29 370.67 269.29 369.943 269.29C369.216 269.29 368.671 269.472 368.126 269.654L363.947 272.019C363.402 272.383 363.22 272.747 363.22 273.111C363.22 273.475 363.402 273.839 363.947 274.203C364.492 274.567 365.037 274.567 365.764 274.567C366.491 274.567 367.036 274.385 367.581 274.203L371.76 271.837C372.305 271.473 372.487 271.109 372.487 270.746C372.487 270.2 372.305 269.836 371.76 269.654ZM370.67 270.927L366.491 273.293C366.309 273.475 366.128 273.475 365.764 273.475C365.582 273.475 365.219 273.475 365.037 273.293C364.856 273.111 364.674 273.111 364.674 272.929C364.674 272.747 364.856 272.565 365.037 272.565L369.216 270.2C369.398 270.018 369.58 270.018 369.943 270.018C370.125 270.018 370.488 270.018 370.67 270.2C370.852 270.382 371.033 270.382 371.033 270.564C370.852 270.746 370.852 270.927 370.67 270.927Z" fill="#DDDDDD"/>
<path d="M115.744 228.714L114.653 227.987L107.749 229.624L106.659 230.352L108.657 231.626L107.022 232.535L108.112 233.263L109.748 232.353L110.474 232.717L111.565 231.99L110.838 231.626L115.744 228.714ZM109.748 230.898L108.839 230.352L112.291 229.442L109.748 230.898Z" fill="#DDDDDD"/>
<path d="M124.284 233.627C123.739 233.263 123.193 233.263 122.467 233.263C121.74 233.263 121.195 233.445 120.65 233.627L116.47 235.993C115.925 236.357 115.744 236.721 115.744 237.084C115.744 237.448 115.925 237.812 116.47 238.176C117.016 238.54 117.561 238.54 118.287 238.54C119.014 238.54 119.559 238.358 120.104 238.176L124.284 235.811C124.829 235.447 125.01 235.083 125.01 234.719C125.01 234.173 124.829 233.809 124.284 233.627ZM123.012 234.901L118.833 237.266C118.651 237.448 118.469 237.448 118.106 237.448C117.924 237.448 117.561 237.448 117.379 237.266C117.197 237.084 117.016 237.084 117.016 236.903C117.016 236.721 117.197 236.539 117.379 236.539L121.558 234.173C121.74 233.991 121.921 233.991 122.285 233.991C122.467 233.991 122.83 233.991 123.012 234.173C123.193 234.355 123.375 234.355 123.375 234.537C123.375 234.719 123.193 234.901 123.012 234.901Z" fill="#DDDDDD"/>
<path d="M13.8092 167.578L19.8054 164.121L18.8969 163.575L19.6237 163.029C19.9871 163.211 20.3505 163.211 20.7139 163.393C21.0773 163.393 21.6224 163.393 21.9858 163.393L22.7126 163.939L14.8994 168.488L13.8092 167.578Z" fill="#DDDDDD"/>
<path d="M16.8983 169.398L17.9885 170.125L25.8016 165.577L25.0748 165.031C24.7114 165.031 24.348 165.213 23.8029 165.031C23.4395 165.031 23.0761 164.849 22.7127 164.667L21.9859 165.213L22.8944 165.758L16.8983 169.398Z" fill="#DDDDDD"/>
<path d="M28.8906 167.214C28.3455 166.851 27.8004 166.851 27.0736 166.851C26.3468 166.851 25.8017 167.032 25.2566 167.214L21.0774 169.58C20.5323 169.944 20.3506 170.308 20.3506 170.672C20.3506 171.035 20.5323 171.399 21.0774 171.763C21.6225 172.127 22.1676 172.127 22.8944 172.127C23.6213 172.127 24.1664 171.945 24.7115 171.763L28.8906 169.398C29.4357 169.034 29.6174 168.67 29.6174 168.306C29.6174 167.76 29.254 167.396 28.8906 167.214ZM27.6187 168.67L23.4396 171.035C23.2579 171.217 23.0762 171.217 22.7128 171.217C22.531 171.217 22.1676 171.217 21.9859 171.035C21.8042 170.853 21.6225 170.853 21.6225 170.672C21.6225 170.49 21.8042 170.308 21.9859 170.308L26.1651 167.942C26.3468 167.76 26.5285 167.76 26.8919 167.76C27.0736 167.76 27.437 167.76 27.6187 167.942C27.8004 168.124 27.9821 168.124 27.9821 168.306C27.9821 168.488 27.8004 168.488 27.6187 168.67Z" fill="#DDDDDD"/>
<path d="M67.2294 100.801C67.7746 100.437 67.7746 100.255 67.2294 99.8915L66.6844 99.7096C65.9576 99.1637 65.049 99.3457 64.3222 99.7096L63.232 99.1637C63.5954 98.9818 63.9588 98.6179 63.7771 98.4359C63.7771 98.254 63.5954 97.8901 63.0503 97.7081L62.8686 97.5261C62.3235 97.1622 61.9601 97.1622 61.415 97.5261C61.2333 97.7081 61.0516 97.8901 61.2333 98.072C61.2333 98.254 61.415 98.254 61.5967 98.4359L61.7784 98.6179L60.6882 99.3457L60.5065 99.1637C59.9614 98.7998 59.598 98.4359 59.598 98.072C59.598 97.7081 59.7797 97.3442 60.3248 96.9803C60.8699 96.6164 61.415 96.4344 62.1418 96.6164C62.6869 96.6164 63.4137 96.7983 63.7771 97.1623L64.1405 97.3442C64.6856 97.7081 64.8673 97.8901 64.8673 98.254C64.8673 98.4359 64.8673 98.6179 64.8673 98.7998C65.4125 98.7998 65.9575 98.7998 66.5026 98.7998C66.866 98.7998 67.0477 98.9818 67.4111 99.1637L67.9563 99.5276C68.5014 99.8915 68.8648 100.255 68.8648 100.619C68.8648 100.983 68.5014 101.347 67.9563 101.711C67.4111 102.075 66.8661 102.075 66.1392 102.075C65.4124 102.075 64.8673 101.893 64.3222 101.711L64.1405 101.529L65.2307 100.801L65.5941 100.983C65.7758 101.165 65.9575 101.165 66.3209 101.165C66.866 100.983 67.0477 100.801 67.2294 100.801ZM65.9575 95.1608L68.138 93.8871L67.0478 93.1593L63.5954 95.1608L67.7746 97.5261L68.8648 96.7983L68.6831 96.6164C68.5014 96.6164 68.5014 96.4344 68.3196 96.2525C68.3196 96.0705 68.3197 95.8886 68.5014 95.8886C68.6831 95.8886 68.8648 95.7066 68.8648 95.7066C69.2282 95.7066 69.4099 95.7066 69.5916 95.8886L71.4086 96.9803C71.9537 97.3442 71.9537 97.5261 71.4086 97.8901C71.4086 97.8901 71.2269 97.8901 71.2269 98.072C70.8635 98.072 70.5001 98.072 70.3184 97.8901L69.955 97.7081L68.8648 98.4359L69.0465 98.6179C69.5916 98.9818 70.1367 98.9818 70.8635 99.1637C71.5903 99.1637 72.1354 98.9818 72.6805 98.7998C73.2256 98.4359 73.4073 98.072 73.4073 97.7081C73.4073 97.3442 73.0439 96.9803 72.4988 96.6164L70.8635 95.7066C70.3184 95.3427 69.7733 95.1608 69.2282 95.1608C68.6831 95.1608 68.138 95.1608 67.5929 95.5247C67.4112 95.5247 67.4111 95.7066 67.2294 95.7066C67.0477 95.8886 67.0478 96.0705 67.0478 96.2525L65.9575 95.1608ZM77.7681 93.8871L73.589 91.5217C73.0439 91.1578 72.4988 91.1578 71.772 91.1578C71.0452 91.1578 70.5001 91.3397 69.955 91.5217C69.4099 91.8856 69.2282 92.2495 69.2282 92.6134C69.2282 92.9773 69.4099 93.3412 69.955 93.7051L74.1341 96.0705C74.6792 96.4344 75.2243 96.4344 75.9511 96.4344C76.6779 96.4344 77.223 96.2525 77.7681 96.0705C78.3132 95.7066 78.4949 95.3427 78.4949 94.9788C78.4949 94.6149 78.3132 94.251 77.7681 93.8871ZM72.3171 92.0676L76.4962 94.433C76.6779 94.6149 76.8596 94.6149 76.8596 94.7969C76.8596 94.9788 76.6779 95.1608 76.4962 95.1608C76.3145 95.3427 76.1328 95.3427 75.7694 95.3427C75.5877 95.3427 75.2243 95.3427 75.0426 95.1608L70.8635 92.7954C70.6818 92.6134 70.5001 92.6134 70.5001 92.4315C70.5001 92.2495 70.5001 92.0676 70.8635 92.0676C71.0452 91.8856 71.2269 91.8856 71.5903 91.8856C71.9537 91.8856 72.1354 92.0676 72.3171 92.0676Z" fill="#DDDDDD"/>
<path d="M454.253 335.703C453.526 335.339 453.162 334.793 453.162 334.429C453.162 334.065 453.526 333.702 454.071 333.338C454.616 332.974 455.161 332.974 455.888 332.974C456.615 332.974 457.341 333.156 457.705 333.52C458.25 333.883 458.613 334.247 458.795 334.611C458.977 334.793 459.158 335.339 459.34 335.885C459.34 336.067 459.522 336.249 459.704 336.795L459.885 337.159C459.885 337.341 460.067 337.523 460.067 337.704C460.067 337.704 460.067 337.704 460.067 337.886L462.429 336.613L463.519 337.341L459.885 339.524L458.795 338.978C458.795 338.978 458.795 338.796 458.613 338.614C458.613 338.432 458.613 338.432 458.432 338.25L458.25 337.886C458.25 337.704 458.068 337.341 457.887 336.795C457.705 336.249 457.523 335.885 457.341 335.521C457.16 335.157 456.978 334.975 456.615 334.793C456.433 334.611 456.07 334.611 455.888 334.611C455.524 334.611 455.343 334.611 455.161 334.793C454.798 334.975 454.798 335.157 454.979 335.521C454.979 335.703 455.161 335.703 455.343 335.885L455.706 336.067L454.616 336.795L454.253 335.703ZM458.795 332.974L458.977 333.156L460.067 332.428L459.704 332.246C459.522 332.064 459.34 332.064 459.34 331.882C459.158 331.518 459.158 331.336 459.522 331.154C459.704 330.972 460.067 330.972 460.249 330.972C460.612 330.972 460.794 331.154 460.975 331.154C461.339 331.336 461.521 331.518 461.702 331.882C461.884 332.246 462.066 332.61 462.247 333.156C462.429 333.702 462.429 334.065 462.611 334.247L462.792 334.611C462.792 334.793 462.792 334.793 462.974 334.975C462.974 335.157 463.156 335.339 463.156 335.339L464.246 335.885L467.88 333.702L466.79 332.974L464.428 334.247C464.428 334.247 464.428 334.247 464.428 334.065C464.428 333.883 464.246 333.883 464.246 333.52L464.064 333.156C463.883 332.792 463.883 332.428 463.701 332.246C463.519 331.518 463.338 331.154 463.156 330.972C462.974 330.608 462.429 330.244 462.066 329.88C461.521 329.517 460.975 329.517 460.249 329.335C459.522 329.335 458.795 329.517 458.432 329.699C457.887 330.062 457.523 330.426 457.523 330.79C457.705 332.246 458.068 332.61 458.795 332.974ZM471.151 330.426L466.972 328.061C466.427 327.697 465.881 327.697 465.155 327.697C464.428 327.697 463.883 327.879 463.338 328.061C462.792 328.425 462.611 328.789 462.611 329.153C462.611 329.517 462.792 329.88 463.338 330.244L467.517 332.61C468.062 332.974 468.607 332.974 469.334 332.974C470.061 332.974 470.606 332.792 471.151 332.61C471.696 332.246 471.878 331.882 471.878 331.518C471.878 330.972 471.696 330.608 471.151 330.426ZM465.7 328.607L469.879 330.972C470.061 331.154 470.242 331.154 470.242 331.336C470.242 331.518 470.061 331.7 469.879 331.7C469.697 331.882 469.515 331.882 469.152 331.882C468.97 331.882 468.607 331.882 468.425 331.7L464.246 329.335C464.064 329.153 463.883 329.153 463.883 328.971C463.883 328.789 463.883 328.607 464.246 328.607C464.428 328.425 464.609 328.425 464.973 328.425C465.155 328.425 465.518 328.425 465.7 328.607Z" fill="#DDDDDD"/>
<path d="M671.385 207.062C670.658 206.698 670.295 206.152 670.295 205.788C670.295 205.425 670.658 205.061 671.204 204.697C671.749 204.333 672.294 204.333 673.021 204.333C673.747 204.333 674.474 204.515 674.838 204.879C675.383 205.243 675.746 205.606 675.928 205.97C676.109 206.152 676.291 206.698 676.473 207.244C676.473 207.426 676.655 207.608 676.836 207.972L677.018 208.336C677.018 208.518 677.2 208.7 677.2 208.882C677.2 208.882 677.2 208.882 677.2 209.064L679.562 207.79L680.652 208.518L677.018 210.701L675.928 210.155C675.928 210.155 675.928 209.973 675.746 209.791C675.746 209.609 675.746 209.609 675.564 209.428L675.383 209.064C675.383 208.882 675.201 208.518 675.019 207.972C674.838 207.426 674.656 207.062 674.474 206.698C674.292 206.334 674.111 206.152 673.747 205.97C673.566 205.788 673.202 205.788 673.021 205.788C672.657 205.788 672.475 205.788 672.294 205.97C671.93 206.152 671.93 206.334 672.112 206.698C672.112 206.88 672.294 206.88 672.475 207.062L672.839 207.244L671.749 207.972L671.385 207.062ZM676.109 204.515L676.291 204.697L677.381 203.969L677.018 203.787C676.836 203.605 676.655 203.605 676.655 203.423C676.473 203.059 676.473 202.877 676.836 202.695C677.018 202.513 677.381 202.513 677.563 202.513C677.926 202.513 678.108 202.695 678.29 202.695C678.653 202.877 678.835 203.059 679.017 203.423C679.198 203.787 679.38 204.151 679.562 204.697C679.743 205.243 679.743 205.606 679.925 205.788L680.107 206.152C680.107 206.334 680.107 206.334 680.289 206.516C680.289 206.698 680.47 206.88 680.47 206.88L681.561 207.426L685.195 205.243L684.104 204.515L681.742 205.788C681.742 205.788 681.742 205.788 681.742 205.606C681.742 205.425 681.561 205.425 681.561 205.061L681.379 204.697C681.197 204.333 681.197 203.969 681.015 203.969C680.834 203.241 680.652 202.877 680.47 202.695C680.289 202.331 679.743 201.967 679.38 201.604C678.835 201.24 678.29 201.24 677.563 201.058C676.836 201.058 676.109 201.24 675.746 201.422C675.201 201.785 674.838 202.149 674.838 202.513C675.019 203.605 675.383 203.969 676.109 204.515ZM688.283 201.785L684.104 199.42C683.559 199.056 683.014 199.056 682.287 199.056C681.56 199.056 681.015 199.238 680.47 199.42C679.925 199.784 679.744 200.148 679.744 200.512C679.744 200.876 679.925 201.24 680.47 201.604L684.649 203.969C685.194 204.333 685.74 204.333 686.466 204.333C687.193 204.333 687.738 204.151 688.283 203.969C688.829 203.605 689.01 203.241 689.01 202.877C689.192 202.331 688.829 201.967 688.283 201.785ZM682.832 199.966L687.012 202.331C687.193 202.513 687.375 202.513 687.375 202.695C687.375 202.877 687.193 203.059 687.012 203.059C686.83 203.241 686.648 203.241 686.285 203.241C686.103 203.241 685.74 203.241 685.558 203.059L681.379 200.694C681.197 200.512 681.015 200.512 681.015 200.33C681.015 200.148 681.015 199.966 681.379 199.966C681.56 199.784 681.742 199.784 682.106 199.784C682.469 199.784 682.651 199.784 682.832 199.966Z" fill="#DDDDDD"/>
<path d="M544.74 318.236L538.743 314.778L537.835 315.324L536.926 314.778C537.108 314.596 537.29 314.415 537.471 314.051C537.471 313.869 537.471 313.505 537.29 313.323L538.017 312.777L545.83 317.326L544.74 318.236Z" fill="#DDDDDD"/>
<path d="M548.919 313.687L548.192 313.323C547.829 313.141 547.647 312.959 547.283 312.959C546.738 312.777 546.193 312.777 545.648 312.959C545.648 312.777 545.83 312.595 545.83 312.595C545.83 312.231 545.466 311.867 545.103 311.685L544.74 311.503C544.195 311.139 543.649 311.139 543.104 310.957C542.378 310.957 541.832 311.139 541.287 311.321H541.106C540.561 311.685 540.379 312.049 540.379 312.413C540.379 312.777 540.742 313.141 541.106 313.323L541.469 313.505C541.832 313.687 542.014 313.869 542.378 313.869C542.923 314.051 543.468 314.051 543.831 313.869C543.831 314.051 543.649 314.233 543.649 314.415C543.649 314.778 544.013 315.142 544.376 315.324L545.103 315.688C545.648 316.052 546.193 316.052 546.92 316.052C547.647 316.052 548.192 315.87 548.737 315.688H548.919C549.464 315.324 549.646 314.96 549.646 314.596C549.646 314.415 549.464 314.051 548.919 313.687ZM544.013 313.141C543.649 313.323 543.468 313.323 543.104 313.323C542.923 313.323 542.559 313.141 542.196 312.959C542.014 312.777 541.832 312.777 541.651 312.595C541.469 312.413 541.469 312.413 541.469 312.231C541.469 312.049 541.651 312.049 541.832 311.867C542.014 311.867 542.014 311.685 542.196 311.685C542.741 311.503 543.104 311.685 543.649 312.049C544.013 312.231 544.195 312.413 544.195 312.595C544.376 312.777 544.376 312.959 544.013 313.141ZM547.647 315.324C547.465 315.506 547.283 315.506 546.92 315.506C546.557 315.506 546.375 315.506 546.012 315.324L545.648 315.142C545.466 314.96 545.285 314.778 545.103 314.778C544.921 314.596 545.103 314.415 545.285 314.233C545.466 314.051 545.648 314.051 545.83 314.051C546.193 314.051 546.557 314.051 547.102 314.415L547.465 314.596C547.647 314.596 547.647 314.778 547.829 314.778C548.01 314.778 548.01 314.96 547.647 315.324Z" fill="#DDDDDD"/>
<path d="M546.375 309.684L548.555 308.41L547.465 307.682L544.013 309.684L548.192 312.049L549.282 311.321L549.1 311.139C548.919 311.139 548.919 310.957 548.737 310.775C548.737 310.593 548.737 310.411 548.919 310.411C549.1 310.411 549.282 310.23 549.282 310.23C549.646 310.23 549.827 310.23 550.009 310.411L551.826 311.503C552.371 311.867 552.371 312.049 551.826 312.413C551.826 312.413 551.644 312.413 551.644 312.595C551.281 312.595 550.917 312.595 550.736 312.413L550.372 312.231L549.282 312.959L549.464 313.141C550.009 313.505 550.554 313.505 551.281 313.687C552.008 313.687 552.553 313.505 553.098 313.323C553.643 312.959 553.825 312.595 553.825 312.231C553.825 311.867 553.461 311.503 552.916 311.139L551.281 310.23C550.736 309.866 550.191 309.684 549.646 309.684C549.1 309.684 548.555 309.684 548.01 310.048C547.829 310.048 547.829 310.23 547.647 310.23C547.465 310.411 547.465 310.593 547.465 310.775L546.375 309.684Z" fill="#DDDDDD"/>
<path d="M614.876 275.476C615.421 275.113 615.421 274.931 614.876 274.567L614.331 274.385C613.604 273.839 612.696 274.021 611.969 274.385L610.879 273.839C611.242 273.657 611.606 273.293 611.424 273.111C611.424 272.929 611.242 272.565 610.697 272.383L610.516 272.201C609.97 271.837 609.607 271.837 609.062 272.201C608.88 272.383 608.699 272.565 608.88 272.747C608.88 272.929 609.062 272.929 609.244 273.111L609.425 273.293L608.335 274.021L608.153 273.839C607.608 273.475 607.245 273.111 607.245 272.747C607.245 272.383 607.427 272.019 607.972 271.655C608.517 271.292 609.062 271.11 609.789 271.292C610.334 271.292 611.061 271.473 611.424 271.837L611.787 272.019C612.332 272.383 612.514 272.565 612.696 272.929C612.696 273.111 612.696 273.293 612.696 273.475C613.241 273.475 613.786 273.475 614.331 273.475C614.695 273.475 614.876 273.657 615.24 273.839L615.785 274.203C616.33 274.567 616.693 274.931 616.693 275.295C616.693 275.658 616.33 276.022 615.785 276.386C615.24 276.75 614.695 276.75 613.968 276.75C613.241 276.75 612.696 276.568 612.151 276.386L611.969 276.204L613.059 275.476L613.423 275.658C613.604 275.84 613.786 275.84 614.15 275.84C614.513 275.658 614.695 275.658 614.876 275.476ZM613.241 271.292L613.423 271.474L614.513 270.746L614.15 270.564C613.968 270.382 613.786 270.382 613.786 270.2C613.604 269.836 613.604 269.654 613.968 269.472C614.15 269.29 614.513 269.29 614.695 269.29C615.058 269.29 615.24 269.472 615.421 269.472C615.785 269.654 615.967 269.836 616.148 270.2C616.33 270.564 616.512 270.928 616.693 271.474C616.875 272.019 616.875 272.383 617.057 272.565L617.238 272.929C617.238 273.111 617.238 273.111 617.42 273.293C617.42 273.475 617.602 273.657 617.602 273.657L618.692 274.203L622.326 272.019L621.236 271.292L618.874 272.565C618.874 272.565 618.874 272.565 618.874 272.383C618.874 272.201 618.692 272.201 618.692 271.837L618.51 271.474C618.329 271.11 618.329 270.746 618.147 270.564C617.965 269.836 617.784 269.472 617.602 269.29C617.42 268.926 616.875 268.562 616.512 268.198C615.967 267.834 615.421 267.834 614.695 267.652C613.968 267.652 613.241 267.834 612.878 268.016C612.332 268.38 611.969 268.744 611.969 269.108C612.151 270.382 612.514 270.928 613.241 271.292ZM625.597 268.562L621.418 266.197C620.872 265.833 620.327 265.833 619.601 265.833C618.874 265.833 618.329 266.015 617.784 266.197C617.238 266.561 617.057 266.925 617.057 267.289C617.057 267.652 617.238 268.016 617.784 268.38L621.963 270.746C622.508 271.11 623.053 271.11 623.78 271.11C624.506 271.11 625.052 270.928 625.597 270.746C626.142 270.382 626.323 270.018 626.323 269.654C626.323 269.29 626.142 268.926 625.597 268.562ZM620.146 266.925L624.325 269.29C624.507 269.472 624.688 269.472 624.688 269.654C624.688 269.836 624.507 270.018 624.325 270.018C624.143 270.2 623.961 270.2 623.598 270.2C623.416 270.2 623.053 270.2 622.871 270.018L618.692 267.652C618.51 267.471 618.329 267.471 618.329 267.289C618.329 267.107 618.329 266.925 618.692 266.925C618.874 266.743 619.055 266.743 619.419 266.743C619.601 266.743 619.964 266.743 620.146 266.925Z" fill="#DDDDDD"/>
<path d="M648.491 227.805L649.218 227.441L648.127 226.713L647.401 227.077L642.495 224.166L641.405 224.894L644.312 228.897L645.402 229.624L647.401 228.351L649.036 229.26L650.126 228.533L648.491 227.805ZM645.22 228.351L643.767 226.349L646.129 227.805L645.22 228.351Z" fill="#DDDDDD"/>
<path d="M653.942 224.53L649.763 222.164C649.218 221.8 648.673 221.8 647.946 221.8C647.219 221.8 646.674 221.982 646.129 222.164C645.584 222.528 645.402 222.892 645.402 223.256C645.402 223.62 645.584 223.984 646.129 224.348L650.308 226.713C650.853 227.077 651.398 227.077 652.125 227.077C652.852 227.077 653.397 226.895 653.942 226.713C654.487 226.349 654.669 225.985 654.669 225.621C654.669 225.257 654.487 224.894 653.942 224.53ZM652.67 225.985C652.488 226.167 652.307 226.167 651.943 226.167C651.762 226.167 651.398 226.167 651.216 225.985L647.037 223.62C646.856 223.438 646.674 223.438 646.674 223.256C646.674 223.074 646.674 222.892 647.037 222.892C647.219 222.71 647.401 222.71 647.764 222.71C647.946 222.71 648.309 222.71 648.491 222.892L652.67 225.257C652.852 225.439 653.034 225.439 653.034 225.621C652.852 225.803 652.852 225.985 652.67 225.985Z" fill="#DDDDDD"/>
<path d="M307.62 238.722C306.893 238.358 306.53 237.812 306.53 237.448C306.53 237.084 306.893 236.721 307.438 236.357C307.983 235.993 308.528 235.993 309.255 235.993C309.982 235.993 310.709 236.175 311.072 236.539C311.617 236.903 311.981 237.266 312.162 237.63C312.344 237.812 312.526 238.358 312.708 238.904C312.708 239.086 312.889 239.268 313.071 239.814L313.253 240.178C313.253 240.36 313.434 240.542 313.434 240.724C313.434 240.724 313.434 240.724 313.434 240.906L315.796 239.632L316.887 240.36L313.253 242.543L312.162 241.997C312.162 241.997 312.162 241.815 311.981 241.633C311.981 241.451 311.981 241.451 311.799 241.269L311.617 240.906C311.617 240.724 311.436 240.36 311.254 239.814C311.072 239.268 310.891 238.904 310.709 238.54C310.527 238.176 310.345 237.994 309.982 237.812C309.8 237.63 309.437 237.63 309.255 237.63C308.892 237.63 308.71 237.63 308.528 237.812C308.165 237.994 308.165 238.176 308.347 238.54C308.347 238.722 308.528 238.722 308.71 238.904L309.073 239.086L307.983 239.814L307.62 238.722Z" fill="#DDDDDD"/>
<path d="M319.794 236.175L318.522 235.447C317.977 235.083 317.432 234.901 316.886 234.901C316.341 234.901 315.796 234.901 315.251 235.265C314.888 235.447 314.706 235.629 314.706 235.993L313.071 235.083C312.889 234.901 312.707 234.901 312.707 234.719C312.707 234.537 312.707 234.537 312.889 234.355C313.071 234.173 313.252 234.173 313.434 234.173C313.616 234.173 313.798 234.173 313.979 234.355L314.161 234.537L315.433 233.809L315.251 233.627C314.706 233.263 314.161 233.263 313.434 233.081C312.707 233.081 312.162 233.263 311.617 233.445C311.435 233.627 311.254 233.809 311.072 233.991C310.89 234.355 310.89 234.537 310.89 234.901C311.072 235.265 311.254 235.447 311.617 235.629L315.796 237.994C316.341 238.358 316.886 238.358 317.613 238.54C318.34 238.54 318.885 238.358 319.43 238.176C319.975 237.812 320.157 237.63 320.157 237.266C320.521 236.902 320.339 236.538 319.794 236.175ZM318.522 237.63C318.34 237.812 318.158 237.812 317.795 237.812C317.613 237.812 317.432 237.812 317.25 237.63L315.796 236.902C315.615 236.72 315.615 236.72 315.433 236.538C315.433 236.356 315.433 236.175 315.615 236.175C315.796 236.175 315.978 235.993 315.978 235.993C316.341 235.993 316.523 235.993 316.705 236.175L318.158 237.084C318.34 237.266 318.522 237.266 318.522 237.448C318.885 237.448 318.703 237.448 318.522 237.63Z" fill="#DDDDDD"/>
<path d="M324.336 233.445L320.157 231.08C319.612 230.716 319.067 230.716 318.34 230.716C317.613 230.716 317.068 230.898 316.523 231.08C315.978 231.444 315.796 231.808 315.796 232.171C315.796 232.535 315.978 232.899 316.523 233.263L320.702 235.629C321.247 235.992 321.793 235.993 322.519 235.993C323.246 235.993 323.791 235.811 324.336 235.629C324.882 235.265 325.063 234.901 325.063 234.537C325.245 234.173 324.882 233.809 324.336 233.445ZM323.246 234.901C323.064 235.083 322.883 235.083 322.519 235.083C322.338 235.083 321.974 235.083 321.793 234.901L317.613 232.535C317.432 232.353 317.25 232.353 317.25 232.171C317.25 231.99 317.25 231.808 317.613 231.808C317.795 231.626 317.977 231.626 318.34 231.626C318.522 231.626 318.885 231.626 319.067 231.808L323.246 234.173C323.428 234.355 323.61 234.355 323.61 234.537C323.428 234.719 323.428 234.901 323.246 234.901Z" fill="#DDDDDD"/>
<path fill-rule="evenodd" clip-rule="evenodd" d="M225.309 273.111L226.399 273.839L258.379 255.28L257.47 254.552L225.309 273.111Z" fill="#DDDDDD"/>
<path fill-rule="evenodd" clip-rule="evenodd" d="M549.282 286.03L550.372 285.484L545.285 282.573L544.194 283.119L549.282 286.03Z" fill="#DDDDDD"/>
<path d="M634.318 200.694L632.138 201.967L630.866 201.24L633.046 199.966L634.318 200.694ZM631.593 199.238L630.684 198.692L628.504 199.966L629.412 200.512L631.593 199.238ZM629.412 197.782L627.232 199.056L625.96 198.328L628.14 197.055L629.412 197.782Z" fill="#DDDDDD"/>
<path d="M67.0477 164.849L68.683 165.759L69.9549 165.031L68.3196 164.121L67.0477 164.849ZM69.7732 163.211L70.8634 162.665L72.4987 163.575L71.5902 164.121L69.7732 163.211ZM72.1353 161.938L73.7707 162.847L75.0426 162.12L73.4072 161.21L72.1353 161.938Z" fill="#DDDDDD"/>
<path d="M644.13 228.897L641.405 225.076L643.585 226.349C643.767 226.531 643.948 226.531 644.13 226.713L644.857 227.805C645.039 228.169 645.039 228.533 645.039 229.079C645.039 229.26 645.039 229.442 645.039 229.624L644.13 228.897Z" fill="#DDDDDD"/>
</svg>
